<svg width="143" height="48" viewBox="0 0 143 48" fill="none" xmlns="http://www.w3.org/2000/svg">
<path fill-rule="evenodd" clip-rule="evenodd" d="M26.3181 37.2096C27.297 42.0919 24.1259 46.8448 19.2397 47.8229C14.3536 48.801 9.59689 45.6323 8.61805 40.75C7.6392 35.8677 10.8103 31.1148 15.6965 30.1367C20.5826 29.1586 25.3393 32.3273 26.3181 37.2096ZM22.7951 39.3972C23.1507 39.1952 23.1158 38.6797 22.7463 38.5264H22.7533C21.8958 38.1711 20.7873 37.5581 19.7624 36.5062C18.8073 35.5379 18.2356 34.5069 17.894 33.6919C17.7406 33.3226 17.2177 33.3087 17.0225 33.671C16.5973 34.4651 15.9698 35.4195 15.0635 36.353C14.0596 37.377 13.0208 38.0666 12.1702 38.5264C11.8007 38.7215 11.8077 39.2509 12.1842 39.4042C12.9929 39.7385 14.0177 40.2958 14.9798 41.2293C16.0465 42.2603 16.653 43.3819 17.0086 44.2457C17.162 44.6219 17.6779 44.6567 17.88 44.3014C18.3541 43.4655 19.0443 42.4693 20.0343 41.4871C20.9964 40.5327 21.9724 39.8639 22.7951 39.3972Z" fill="#05A070"/>
<path d="M47.5758 0.0161669C47.8751 1.80257 48.2877 5.77954 46.5565 10.3142C46.3057 10.969 45.9255 11.6722 45.4725 12.3916C42.5117 17.0476 38.5196 20.2001 33.1076 21.2832C27.453 22.4149 19.7189 23.9588 17.3568 24.5165C14.9946 25.0743 11.5949 26.577 9.14375 28.5008C5.00186 31.7422 3.24391 35.2666 2.61292 37.1096C1.87677 35.8001 -1.42304 29.4231 0.704531 21.2024C0.785427 20.8791 0.874411 20.5638 0.971487 20.2567C3.05052 13.5233 8.1178 8.5521 15.0021 7.03244C25.6399 4.68829 36.938 2.34415 47.5677 0L47.5758 0.0161669Z" fill="#05A070"/>
<path d="M57.9577 37V13.16H74.2777V17.48H62.9177V23.528H72.6777V27.848H62.9177V37H57.9577ZM76.387 37V19.528H81.187V37H76.387ZM76.387 17.96V13.16H81.187V17.96H76.387ZM93.1155 37.192C91.0035 37.192 89.3608 36.6267 88.1875 35.496C87.0355 34.344 86.4595 32.744 86.4595 30.696V23.688H83.5155V19.528H83.6755C84.5715 19.528 85.2541 19.304 85.7235 18.856C86.2141 18.408 86.4595 17.736 86.4595 16.84V15.56H91.2595V19.528H95.3555V23.688H91.2595V30.376C91.2595 30.9733 91.3661 31.4747 91.5795 31.88C91.7928 32.264 92.1235 32.552 92.5715 32.744C93.0195 32.936 93.5741 33.032 94.2355 33.032C94.3848 33.032 94.5555 33.0213 94.7475 33C94.9395 32.9787 95.1421 32.9573 95.3555 32.936V37C95.0355 37.0427 94.6728 37.0853 94.2675 37.128C93.8621 37.1707 93.4781 37.192 93.1155 37.192ZM105.016 37.384C103.096 37.384 101.422 36.936 99.9922 36.04C98.5842 35.1227 97.6242 33.896 97.1122 32.36L100.632 30.696C101.08 31.6347 101.688 32.3707 102.456 32.904C103.224 33.4373 104.078 33.704 105.016 33.704C105.699 33.704 106.222 33.5653 106.584 33.288C106.947 33.0107 107.128 32.6267 107.128 32.136C107.128 31.88 107.064 31.6667 106.936 31.496C106.808 31.304 106.616 31.1333 106.36 30.984C106.104 30.8347 105.784 30.7067 105.4 30.6L102.424 29.768C100.995 29.3627 99.8962 28.712 99.1282 27.816C98.3602 26.8987 97.9762 25.8213 97.9762 24.584C97.9762 23.496 98.2535 22.5467 98.8082 21.736C99.3629 20.9253 100.142 20.296 101.144 19.848C102.147 19.3787 103.299 19.144 104.6 19.144C106.307 19.144 107.8 19.5493 109.08 20.36C110.382 21.1493 111.299 22.2693 111.832 23.72L108.28 25.384C108.024 24.6587 107.555 24.0827 106.872 23.656C106.211 23.208 105.454 22.984 104.6 22.984C103.982 22.984 103.491 23.112 103.128 23.368C102.787 23.624 102.616 23.976 102.616 24.424C102.616 24.6587 102.68 24.872 102.808 25.064C102.936 25.256 103.139 25.4267 103.416 25.576C103.715 25.7253 104.078 25.864 104.504 25.992L107.288 26.824C108.739 27.2507 109.848 27.9013 110.616 28.776C111.384 29.6293 111.768 30.6853 111.768 31.944C111.768 33.032 111.48 33.9813 110.904 34.792C110.35 35.6027 109.571 36.2427 108.568 36.712C107.566 37.16 106.382 37.384 105.016 37.384ZM123.309 37.384C121.581 37.384 120.002 36.9893 118.573 36.2C117.165 35.4107 116.034 34.3333 115.181 32.968C114.349 31.5813 113.933 30.0133 113.933 28.264C113.933 26.4933 114.349 24.9253 115.181 23.56C116.034 22.1947 117.165 21.1173 118.573 20.328C120.002 19.5387 121.581 19.144 123.309 19.144C125.037 19.144 126.605 19.5387 128.013 20.328C129.421 21.1173 130.541 22.1947 131.373 23.56C132.226 24.9253 132.653 26.4933 132.653 28.264C132.653 30.0133 132.226 31.5813 131.373 32.968C130.541 34.3333 129.421 35.4107 128.013 36.2C126.605 36.9893 125.037 37.384 123.309 37.384ZM123.309 33.064C124.184 33.064 124.941 32.8613 125.581 32.456C126.242 32.0507 126.754 31.4853 127.117 30.76C127.501 30.0347 127.693 29.2027 127.693 28.264C127.693 27.3253 127.501 26.504 127.117 25.8C126.754 25.0747 126.242 24.5093 125.581 24.104C124.941 23.6773 124.184 23.464 123.309 23.464C122.434 23.464 121.666 23.6773 121.005 24.104C120.344 24.5093 119.821 25.0747 119.437 25.8C119.074 26.504 118.893 27.3253 118.893 28.264C118.893 29.2027 119.074 30.0347 119.437 30.76C119.821 31.4853 120.344 32.0507 121.005 32.456C121.666 32.8613 122.434 33.064 123.309 33.064ZM135.481 37V12.776H140.281V37H135.481Z" fill="#05A070"/>
</svg>

