<svg width="48" height="48" viewBox="0 0 48 48" fill="none" xmlns="http://www.w3.org/2000/svg">
<g id="Group 154">
<path id="Subtract" fill-rule="evenodd" clip-rule="evenodd" d="M26.3181 37.2096C27.297 42.0919 24.1259 46.8448 19.2397 47.8229C14.3536 48.801 9.59689 45.6323 8.61805 40.75C7.6392 35.8677 10.8103 31.1148 15.6965 30.1367C20.5826 29.1586 25.3393 32.3273 26.3181 37.2096ZM22.7951 39.3972C23.1507 39.1952 23.1158 38.6797 22.7463 38.5264H22.7533C21.8958 38.1711 20.7873 37.5581 19.7624 36.5062C18.8073 35.5379 18.2356 34.5069 17.894 33.6919C17.7406 33.3226 17.2177 33.3087 17.0225 33.671C16.5973 34.4651 15.9698 35.4195 15.0635 36.353C14.0596 37.377 13.0208 38.0666 12.1702 38.5264C11.8007 38.7215 11.8077 39.2509 12.1842 39.4042C12.9929 39.7385 14.0177 40.2958 14.9798 41.2293C16.0465 42.2603 16.653 43.3819 17.0086 44.2457C17.162 44.6219 17.6779 44.6567 17.88 44.3014C18.3541 43.4655 19.0443 42.4693 20.0343 41.4871C20.9964 40.5327 21.9724 39.8639 22.7951 39.3972Z" fill="#05A070"/>
<path id="Vector" d="M47.5758 0.0161669C47.8751 1.80257 48.2877 5.77954 46.5565 10.3142C46.3057 10.969 45.9255 11.6722 45.4725 12.3916C42.5117 17.0476 38.5196 20.2001 33.1076 21.2832C27.453 22.4149 19.7189 23.9588 17.3568 24.5165C14.9946 25.0743 11.5949 26.577 9.14375 28.5008C5.00186 31.7422 3.24391 35.2666 2.61292 37.1096C1.87677 35.8001 -1.42304 29.4231 0.704531 21.2024C0.785427 20.8791 0.874411 20.5638 0.971487 20.2567C3.05052 13.5233 8.1178 8.5521 15.0021 7.03244C25.6399 4.68829 36.938 2.34415 47.5677 0L47.5758 0.0161669Z" fill="#05A070"/>
</g>
</svg>
